<svg xmlns="http://www.w3.org/2000/svg" width="224.421" height="30.471" viewBox="0 0 224.421 30.471">
  <g id="Group_64" data-name="Group 64" transform="translate(-410.155 -574.904)">
    <g id="Group_62" data-name="Group 62">
      <g id="Group_60" data-name="Group 60">
        <path id="Path_128" data-name="Path 128" d="M438.736,584.471H422.01a.711.711,0,0,1-.7-.837l1.124-6.322a.586.586,0,0,0-.6-.712h-5.966a.892.892,0,0,0-.844.708l-4.861,27.327a.586.586,0,0,0,.6.712h23.923a1.027,1.027,0,0,0,1-.712l1.1-5.088c.085-.393-.224-.712-.692-.712H419.453a.71.71,0,0,1-.7-.834L420,590.982h17.4a.981.981,0,0,0,.95-.712l1.045-5.087A.6.6,0,0,0,438.736,584.471Z" fill="#fff"/>
        <path id="Path_129" data-name="Path 129" d="M437.715,574.9a3.787,3.787,0,1,0,3.786,3.787A3.788,3.788,0,0,0,437.715,574.9Zm0,5.878a2.091,2.091,0,1,1,2.091-2.091A2.091,2.091,0,0,1,437.715,580.782Z" fill="#fff"/>
      </g>
      <path id="Path_130" data-name="Path 130" d="M474.572,579.748h-1.751a.693.693,0,0,0-.166-.022h-8.789a.709.709,0,0,1-.7-.834l.285-1.573a.591.591,0,0,0-.6-.719h-5.73a.911.911,0,0,0-.86.719l-.33,1.827a.706.706,0,0,1-.7.58h-7.892a.876.876,0,0,0-.834.712l-.832,5.225a.6.6,0,0,0,.608.712h6.965l-7.871,18.288c-.17.393.021.712.426.712h7.151a1.243,1.243,0,0,0,1.04-.712l7.871-18.288h4.8L464.8,598.362a.706.706,0,0,1-.7.6h-1.593a.886.886,0,0,0-.837.712l-.866,4.963a.582.582,0,0,0,.588.712h2.856a.618.618,0,0,0,.163.023h6.17a.859.859,0,0,0,.814-.713l3.766-24.2A.591.591,0,0,0,474.572,579.748Z" fill="#fff"/>
      <path id="Path_131" data-name="Path 131" d="M546.256,579.748h-1.751a.694.694,0,0,0-.167-.022H535.55a.708.708,0,0,1-.7-.834l.284-1.573a.589.589,0,0,0-.6-.719h-5.73a.909.909,0,0,0-.86.719l-.331,1.827a.7.7,0,0,1-.694.58H519.03a.875.875,0,0,0-.834.712l-.832,5.225a.6.6,0,0,0,.608.712h6.964l-7.871,18.288c-.169.393.022.712.427.712h7.151a1.244,1.244,0,0,0,1.04-.712l7.871-18.288h4.8l-1.866,11.987a.7.7,0,0,1-.7.6H534.2a.885.885,0,0,0-.837.712l-.866,4.963a.581.581,0,0,0,.587.712h2.857a.611.611,0,0,0,.162.023h6.17a.859.859,0,0,0,.815-.713l3.766-24.2A.592.592,0,0,0,546.256,579.748Z" fill="#fff"/>
      <g id="Group_61" data-name="Group 61">
        <path id="Path_132" data-name="Path 132" d="M494.035,578.14h-5.886a.9.9,0,0,0-.85.713l-3.456,19.511a.708.708,0,0,1-.7.584H481.2a.944.944,0,0,0-.874.7l-1.151,5.019a.545.545,0,0,0,.55.7h9.488a.9.9,0,0,0,.851-.713l4.571-25.809A.587.587,0,0,0,494.035,578.14Z" fill="#fff"/>
        <path id="Path_133" data-name="Path 133" d="M509.248,598.948H506.4a.714.714,0,0,1-.709-.79l1.6-14.9a4.751,4.751,0,0,1-3.347-5.117h-2.712a.827.827,0,0,0-.8.72l-2.773,25.773a.632.632,0,0,0,.641.714h1.673a.667.667,0,0,0,.182.028h7.615a.944.944,0,0,0,.874-.7l1.151-5.019A.546.546,0,0,0,509.248,598.948Z" fill="#fff"/>
        <path id="Path_134" data-name="Path 134" d="M508.678,574.9a3.787,3.787,0,1,0,3.786,3.787A3.788,3.788,0,0,0,508.678,574.9Zm0,5.878a2.091,2.091,0,1,1,2.091-2.091A2.091,2.091,0,0,1,508.678,580.782Z" fill="#fff"/>
      </g>
    </g>
    <path id="Path_135" data-name="Path 135" d="M630.6,605.375H550.63a.747.747,0,0,1-.736-.879l3.228-19.477a.748.748,0,0,1,.736-.616h79.97a.748.748,0,0,1,.736.879l-3.228,19.477A.748.748,0,0,1,630.6,605.375Z" fill="#fff"/>
    <g id="Group_63" data-name="Group 63">
      <path id="Path_136" data-name="Path 136" d="M555.01,594.749l3.759-4.4a2.409,2.409,0,0,1,1.759-.6,2.507,2.507,0,0,1,1.73.744,54.687,54.687,0,0,0,6.526,6.864.379.379,0,0,1,.053.512l-1.524,2.036a.385.385,0,0,1-.58.041,68.751,68.751,0,0,1-5.8-6.65.612.612,0,0,0-.511-.248.64.64,0,0,0-.526.263l-2.8,3.877a.377.377,0,0,1-.607.007L555,595.223A.379.379,0,0,1,555.01,594.749Z" fill="#00b050"/>
      <path id="Path_137" data-name="Path 137" d="M576.229,589.114v5.165a11.526,11.526,0,0,1-2.72,6.855.379.379,0,0,1-.547.03l-1.683-1.574a.381.381,0,0,1-.016-.536,7.576,7.576,0,0,0,1.944-4.8v-5.412a.378.378,0,0,1,.423-.376l2.263.273A.382.382,0,0,1,576.229,589.114Zm3.81-.415v8.632a6.751,6.751,0,0,0,1.912-2.373,6.354,6.354,0,0,0,.61-2.244.371.371,0,0,1,.531-.3l1.747.842a.385.385,0,0,1,.218.355,7.636,7.636,0,0,1-1.184,3.854,8.056,8.056,0,0,1-2.615,2.6,7.572,7.572,0,0,1-3.64,1.156.37.37,0,0,1-.382-.373V588.694a.371.371,0,0,1,.371-.371h2.056A.376.376,0,0,1,580.039,588.7Z" fill="#00b050"/>
      <path id="Path_138" data-name="Path 138" d="M588.066,588.279H597.6a.383.383,0,0,1,.375.459,20.419,20.419,0,0,1-2.433,6.155q2.355,2.013,4.312,3.987a.382.382,0,0,1,.006.53l-1.657,1.779a.384.384,0,0,1-.563,0q-1.825-1.938-3.952-3.875a21.933,21.933,0,0,1-4.78,3.791.387.387,0,0,1-.495-.091l-1.52-1.868a.381.381,0,0,1,.141-.588,13.26,13.26,0,0,0,3.858-2.7,13.571,13.571,0,0,0,2.942-4.482h-5.768a.378.378,0,0,1-.378-.378v-2.339A.377.377,0,0,1,588.066,588.279Z" fill="#00b050"/>
      <path id="Path_139" data-name="Path 139" d="M604.959,587.906l2.261.353a.378.378,0,0,1,.311.468,13.345,13.345,0,0,1-.644,1.815l7.051.014a.38.38,0,0,1,.38.38v2.247a.381.381,0,0,1-.381.381H611.3a8.517,8.517,0,0,1-.979,4.226,8.132,8.132,0,0,1-1.745,2.242,8.481,8.481,0,0,1-3.177,1.828.376.376,0,0,1-.391-.11l-1.592-1.779a.379.379,0,0,1,.223-.625,5.516,5.516,0,0,0,3.04-1.738,5.627,5.627,0,0,0,1.57-4.015h-3.066a18.492,18.492,0,0,1-2.194,2.468.378.378,0,0,1-.555-.047l-1.445-1.853a.376.376,0,0,1,.045-.51,12.713,12.713,0,0,0,3.512-5.485A.378.378,0,0,1,604.959,587.906Z" fill="#00b050"/>
      <path id="Path_140" data-name="Path 140" d="M617.41,588.294h11.738a.384.384,0,0,1,.384.364,9.936,9.936,0,0,1-.866,4.424,10.932,10.932,0,0,1-3.129,3.647c-.145.12.018.11-.119-.02l-.98-1.3a7.788,7.788,0,0,1-1.941,3.788,7.076,7.076,0,0,1-3,2.207.379.379,0,0,1-.423-.11l-1.58-1.86a.378.378,0,0,1,.179-.606,4.749,4.749,0,0,0,2.186-1.5,4.837,4.837,0,0,0,1.2-3.1v-1.55a.377.377,0,0,1,.377-.377h2.236a.379.379,0,0,1,.379.379v1.446a4.72,4.72,0,0,0,2.073-2.686h-8.718a.377.377,0,0,1-.377-.378v-2.381A.38.38,0,0,1,617.41,588.294Z" fill="#00b050"/>
    </g>
  </g>
</svg>
